# xmcd
#
# Track frame offsets:
#	150
#	19625
#	40090
#	59945
#	82577
#	102472
#	121047
#	142652
#	162312
#	182862
#
# Disc length: 2674 seconds
#
# Revision: 2
# Processed by: cddbd v1.5.2PL0 Copyright (c) Steve Scherf et al.
# Submitted via: EasyCDDAExtractor 15.3.0.1
#
DISCID=780a700a
DTITLE=Edwin - Vuelve
DYEAR=2000
DGENRE=Latin
TTITLE0=Vuelve
TTITLE1=Y Que Me Pasa
TTITLE2=Yo Me Ire
TTITLE3=Enamorado De Ti
TTITLE4=Vuelve (Balada)
TTITLE5=Como Te Quiero
TTITLE6=Volver A Comenzar
TTITLE7=Me Enamore
TTITLE8=Ahora Ven (Vuelve Otra Vez)
TTITLE9=Quema Quema
EXTD=
EXTT0=
EXTT1=
EXTT2=
EXTT3=
EXTT4=
EXTT5=
EXTT6=
EXTT7=
EXTT8=
EXTT9=
PLAYORDER=
